# xmcd CD database file
#
# Track frame offsets:
#	150
#	27078
#	55728
#	74040
#	101455
#	128412
#	141394
#	176347
#	196110
#	229223
#	260290
#
# Disc length: 3728 seconds
#
# Revision: 0
# Processed by: cddbd v1.5.2PL0 Copyright (c) Steve Scherf et al.
# Submitted via: CDex 1.70beta2
#
DISCID=920e8e0b
DTITLE=Enigma - Deep Forest
DYEAR=1900
DGENRE=New Age
TTITLE0=Deep Forest - Deep Forest, Mouquet, Eric 
TTITLE1=Sweet Lullaby
TTITLE2=Hunting
TTITLE3=Night Bird
TTITLE4=The First Twilight - Deep Forest, Cue
TTITLE5=Savana Dance - Deep Forest, Cue
TTITLE6=Desert Walk
TTITLE7=White Whisper
TTITLE8=The Second Twilight - Deep Forest, Cue
TTITLE9=Sweet Lullaby 2
TTITLE10=Forest Hymn
EXTD=
EXTT0=
EXTT1=
EXTT2=
EXTT3=
EXTT4=
EXTT5=
EXTT6=
EXTT7=
EXTT8=
EXTT9=
EXTT10=
PLAYORDER=
